<svg width="207" height="167" viewBox="0 0 207 167" fill="none" xmlns="http://www.w3.org/2000/svg">
<path fill-rule="evenodd" clip-rule="evenodd" d="M74.6981 83.3251C75.1855 84.8681 75.6862 86.4535 76.1976 88.1018C76.2652 88.3195 76.3417 88.5602 76.4251 88.8225C77.4643 92.0904 79.5676 98.7042 78.5584 105.786C77.6734 111.996 74.3327 117.083 69.3206 120.239C64.9581 122.986 60.2983 123.667 57.1126 123.843C51.9885 124.127 46.0646 123.15 43.4648 122.721C43.0165 122.647 42.6671 122.589 42.4376 122.557C33.8242 121.353 30.4105 124.769 29.291 126.868C28.015 129.261 27.5535 133.88 32.0845 139.079C36.2006 143.802 42.4159 147.876 50.3468 149.523C50.3468 149.523 60.1705 150.99 64.4135 154.34C68.6564 157.69 65.2474 178.398 58.5951 178.154C53.1927 177.956 44.7196 176.63 44.7196 176.63C30.6389 173.707 19.1426 166.368 11.2126 157.269C0.0482339 144.458 -2.44588 127.544 4.86189 113.84C13.5539 97.541 31.9416 92.8576 49.0495 95.566C49.2179 95.5927 49.3845 95.6189 49.5496 95.6446C49.196 94.5116 48.8274 93.3453 48.4506 92.153C45.1512 81.713 41.4165 70.5988 40.4781 59.6344C39.8996 52.8758 40.3832 43.8742 45.9251 35.848C48.487 32.1376 51.9317 29.1339 56.2538 27.3757C60.4805 25.6563 64.5989 25.5118 67.9942 25.9372C74.1438 26.7078 79.7238 29.6563 82.6463 31.2005L82.7048 31.2314C85.3251 32.6159 87.9784 34.0954 90.6181 35.6866C92.7164 26.3473 97.2917 13.4354 109.015 5.6949C121.481 -2.53575 137.917 -0.297065 148.062 9.45667C155.867 16.9611 157.843 26.2155 158.905 32.5393C159.42 35.608 159.808 38.3178 160.166 40.8118C160.752 44.902 161.255 48.4119 162.097 51.9729C162.479 51.6329 162.858 51.3014 163.216 50.9957C169.19 45.9046 176.17 41.5797 184.05 38.7897C190.58 36.4775 198.319 35.3277 206.012 37.5331C214.172 39.8722 220.571 45.5074 224.533 53.4731C232.247 68.9778 243.273 99.84 232.889 117.827C230.816 121.416 218.151 127.74 211.818 118.977C208.652 114.595 209.583 105.316 209.583 105.316C209.396 104.167 209.212 103.032 209.03 101.909C206.772 87.9747 204.84 76.0448 199.745 65.8046C199.258 64.8258 198.864 64.4443 198.737 64.3347C198.629 64.2409 198.546 64.1938 198.383 64.1469C197.941 64.0203 196.35 63.8045 193.29 64.8879C189.048 66.3899 184.963 68.838 181.176 72.0664C180.409 72.72 179.824 73.2597 179.08 73.9456C178.572 74.4149 177.989 74.9525 177.223 75.642C175.64 77.067 173.57 78.8512 171.092 80.4759C168.913 81.9041 164.798 84.3375 159.495 84.5607C153.132 84.8287 147.988 81.9017 144.437 78.0122C139.706 72.8303 137.468 66.7747 136.184 62.2904C134.34 55.8474 133.306 48.6748 132.455 42.7754C132.157 40.7053 131.881 38.7921 131.601 37.1221C130.707 31.7976 129.845 30.3487 128.873 29.4145C128.342 28.9036 127.488 28.4696 126.47 28.361C125.476 28.2548 124.729 28.4958 124.27 28.799C117.017 33.5875 117.576 45.0115 115.801 52.6758C115.283 54.9148 114.337 58.3674 112.46 61.5121C110.758 64.3645 105.524 71.1654 96.0674 70.0483C90.3283 69.3704 72.5825 48.7638 67.9839 54.7904C65.3115 58.2926 73.2382 78.7028 74.6981 83.3251Z" fill="#DDDACA"/>
</svg>
