<svg width="69" height="60" viewBox="0 0 69 60" fill="none" xmlns="http://www.w3.org/2000/svg">
<g id="Vector">
<path d="M37.0954 13.0062C33.0935 12.4563 29.1469 11.4385 25.4177 13.8992C21.9354 16.2 19.2674 20.1269 18.2504 24.3307C16.8132 30.2698 17.6681 37.0317 21.5042 41.7892C23.612 44.3981 27.1165 47.1785 30.2487 48.2119C38.2894 50.8714 48.2278 49.6119 53.2726 41.684C54.7134 39.4222 56.1579 36.3532 56.6849 33.6702C58.1625 26.1596 56.508 17.3582 49.1601 14.1254C45.8878 12.6864 42.3908 13.478 38.9711 13.2168C38.341 13.1661 37.7182 13.092 37.0954 13.0062Z" fill="#DB4437"/>
<path d="M49.3186 0.00486598C51.9865 -0.0887248 56.4601 1.17475 58.2694 3.19085C58.4905 3.44433 58.9143 3.79919 58.9769 4.11116C59.0764 4.62201 58.6932 5.05877 58.4131 5.43313C54.4333 10.8107 46.2821 13.5989 41.1231 9.94499C40.4009 9.43414 40.7878 8.48653 40.9352 7.70271C41.5285 4.57521 43.8095 1.7051 46.6211 0.57031C47.5019 0.215445 48.412 0.0360629 49.3186 0.00486598Z" fill="#BDCF46"/>
<path d="M41.0236 8.32665C40.9978 8.22526 40.9499 8.13556 40.8799 8.07317C40.7325 7.95228 40.4267 7.83139 40.2535 7.7651C39.9918 7.65981 39.7118 7.61692 39.4391 7.61692C39.3359 7.61692 39.2364 7.62081 39.1406 7.63251C38.7721 7.67931 38.4552 7.8236 38.2451 8.13946C37.9651 8.54892 38.013 9.01298 37.9393 9.48873C37.8361 10.1673 37.5339 10.7834 37.3681 11.4463C37.2391 11.9572 37.136 12.4758 37.0438 12.9984C36.9738 13.3805 36.9149 13.7627 36.8706 14.1488C36.7122 15.5799 36.4911 17.0111 36.5501 18.4578C36.5537 18.6567 36.5611 18.8556 36.5722 19.0545C36.5758 19.1559 36.5869 19.2534 36.6016 19.3548C36.6237 19.4873 36.6311 19.6394 36.6459 19.7915C36.6532 19.8461 36.6569 19.9007 36.6643 19.9553C36.7048 20.1893 36.7822 20.4077 36.9922 20.5285C37.2539 20.6845 37.5634 20.7547 37.873 20.7586C37.9688 20.7586 38.0609 20.743 38.1567 20.7352L38.3999 20.7196C38.5178 20.6845 38.6358 20.6377 38.761 20.6026C38.9563 20.5519 39.148 20.4467 39.2843 20.2868C39.4059 20.1425 39.4207 19.9943 39.4133 19.8227L39.4022 19.7018C39.3875 19.5497 39.3764 19.3938 39.3691 19.2378C39.3543 18.9297 39.3433 18.6138 39.3359 18.3058C39.3138 17.6116 39.3249 16.9097 39.3838 16.2156C39.4243 15.8022 39.4428 15.3811 39.4759 14.9677C39.5165 14.3905 39.5939 13.8173 39.686 13.2441C39.7081 13.1232 39.7191 13.0062 39.7413 12.8892C39.8739 12.1561 40.1208 11.497 40.3861 10.8029C40.5077 10.4831 40.5593 10.1439 40.6699 9.8358C40.7915 9.51603 41.0605 9.34055 41.0605 8.95838C41.0605 8.7829 41.0752 8.52943 41.0236 8.32665Z" fill="#855C52"/>
<path d="M29.1432 16.7771C28.6715 16.1064 27.3781 16.0401 26.4569 16.3755C25.3182 16.7888 24.3048 17.6896 23.5936 18.7035C22.9819 19.577 22.0828 21.4099 22.9709 22.4121C23.4057 22.8995 23.9326 22.7084 24.4338 22.4433C25.344 21.9636 25.8931 20.9146 26.6595 20.24C27.4481 19.5497 30.2377 18.3097 29.1432 16.7771Z" fill="white"/>
<path d="M36.8264 19.6706C35.9641 19.4756 35.124 19.152 34.3354 18.7425C33.9226 18.528 32.7287 17.5219 32.6071 18.5787C32.4523 19.8539 34.1143 20.9536 34.9397 21.3631C36.3621 22.0728 37.954 22.3263 39.4833 21.9987C40.9573 21.6828 42.2139 20.9146 43.1572 19.5653C43.2788 19.3899 43.3599 19.1832 43.4189 18.9882C43.6289 18.2824 42.8993 18.2746 42.5087 18.4734C42.1918 18.6333 41.9191 18.8907 41.6059 19.0506C41.0015 19.3587 40.3677 19.6082 39.7228 19.7408C38.7574 19.9358 37.7808 19.8851 36.8264 19.6706Z" fill="#B93221"/>
<path d="M67.0351 37.8191C65.6358 36.5285 63.4539 36.6129 61.9834 37.8191L51.0263 46.7325C49.6864 47.83 48.0143 48.4211 46.283 48.4211H32.2546C31.2111 48.4211 30.3573 47.5526 30.3573 46.4912C30.3573 45.4298 31.2111 44.5614 32.2546 44.5614H41.5397C43.4252 44.5614 45.1802 43.2467 45.4885 41.3531C45.8798 38.9408 44.0537 36.8421 41.7413 36.8421H22.768C19.5662 36.8421 16.4712 37.9638 13.981 40.0143L8.46684 44.5614H1.89733C0.853799 44.5614 0 45.4298 0 46.4912V58.0702C0 59.1316 0.853799 60 1.89733 60H44.2078C45.9273 60 47.5993 59.409 48.9511 58.3114L66.8809 43.7171C68.6834 42.2577 68.8257 39.4594 67.0351 37.8191Z" fill="#DDDACA"/>
</g>
</svg>
