<svg width="18" height="10" viewBox="0 0 18 10" fill="none" xmlns="http://www.w3.org/2000/svg">
<path d="M17.1929 0.713125C17.1362 0.57607 17.0401 0.458918 16.9168 0.376482C16.7934 0.294047 16.6484 0.250031 16.5001 0.25H1.5001C1.35168 0.249883 1.20656 0.293807 1.08312 0.37621C0.95967 0.458613 0.86345 0.57579 0.806635 0.712907C0.749821 0.850025 0.734968 1.00092 0.763955 1.14648C0.792943 1.29204 0.864469 1.42573 0.969477 1.53063L8.46948 9.03063C8.53913 9.10036 8.62185 9.15568 8.7129 9.19342C8.80395 9.23116 8.90154 9.25059 9.0001 9.25059C9.09867 9.25059 9.19626 9.23116 9.28731 9.19342C9.37836 9.15568 9.46107 9.10036 9.53073 9.03063L17.0307 1.53063C17.1356 1.42568 17.207 1.29199 17.2358 1.14648C17.2647 1.00096 17.2498 0.850153 17.1929 0.713125Z" fill="black"/>
</svg>
