<svg width="54" height="60" viewBox="0 0 54 60" fill="none" xmlns="http://www.w3.org/2000/svg">
<path id="Vector" d="M39 6.5H39.5V6V3C39.5 1.62614 40.6261 0.5 42 0.5C43.3739 0.5 44.5 1.62614 44.5 3V6V6.5H45H48C51.0239 6.5 53.5 8.97614 53.5 12V54C53.5 57.0239 51.0239 59.5 48 59.5H6C4.54131 59.5 3.14236 58.9205 2.11091 57.8891C1.07951 56.8577 0.50005 55.4588 0.5 54.0002C0.5 54.0001 0.5 54.0001 0.5 54L0.53 12.0004V12C0.53 8.97123 2.95103 6.5 6 6.5H9H9.5V6V3C9.5 1.62614 10.6261 0.5 12 0.5C13.3739 0.5 14.5 1.62614 14.5 3V6V6.5H15H39ZM6 20.5H5.5V21V51C5.5 52.9261 7.07386 54.5 9 54.5H45C46.9261 54.5 48.5 52.9261 48.5 51V21V20.5H48H6ZM30 33.5H39C40.3739 33.5 41.5 34.6261 41.5 36V45C41.5 46.3739 40.3739 47.5 39 47.5H30C28.6261 47.5 27.5 46.3739 27.5 45V36C27.5 34.6261 28.6261 33.5 30 33.5Z" fill="#DDDACA" stroke="#756926"/>
</svg>
