<svg width="66" height="60" viewBox="0 0 66 60" fill="none" xmlns="http://www.w3.org/2000/svg">
<g id="Vector">
<path d="M30.3793 10.8675C28.481 9.41633 26.7419 7.75483 24.1413 7.84284C21.7121 7.9265 19.2457 9.03905 17.5484 10.7745C15.1502 13.2262 13.6973 16.7552 14.3337 20.1957C14.6849 22.0836 15.7042 24.4681 17.0213 25.8961C20.4006 29.565 25.8492 31.8971 30.6535 29.5499C32.025 28.8808 33.6241 27.8217 34.6447 26.6779C37.5032 23.4768 39.1165 18.7231 36.2529 14.9815C34.9774 13.3156 32.9627 12.6638 31.2822 11.5248C30.9733 11.3137 30.6747 11.0934 30.3793 10.8675Z" fill="#DB4437"/>
<path d="M40.2836 8.18767C41.6779 8.93219 43.6185 10.8687 43.9824 12.3811C44.0248 12.5694 44.1429 12.8667 44.0878 13.0364C43.9959 13.3134 43.6772 13.4115 43.4289 13.5099C39.884 14.9369 34.9243 13.8744 33.3009 10.5769C33.0734 10.1156 33.5368 9.77107 33.8317 9.43498C35.0106 8.0955 36.9831 7.38036 38.7423 7.66302C39.2931 7.75184 39.81 7.93441 40.2836 8.18767Z" fill="#BDCF46"/>
<path d="M33.7025 9.76342C33.7176 9.70666 33.7182 9.64903 33.6997 9.59807C33.6579 9.49587 33.5349 9.34675 33.4646 9.26336C33.3599 9.13489 33.2283 9.0312 33.0885 8.95047C33.0356 8.91992 32.9835 8.89235 32.9311 8.86966C32.729 8.78323 32.5261 8.75931 32.3301 8.85015C32.072 8.9656 31.9667 9.20459 31.7959 9.41326C31.5532 9.71143 31.2259 9.92046 30.9554 10.1925C30.7464 10.4018 30.5484 10.6225 30.355 10.8484C30.2122 11.0128 30.0751 11.1805 29.9445 11.3545C29.4629 12.0009 28.9492 12.6288 28.5748 13.3471C28.5211 13.4445 28.4692 13.5431 28.4193 13.6427C28.3928 13.6929 28.3712 13.7434 28.3504 13.7969C28.3247 13.8677 28.2859 13.9435 28.2509 14.0216C28.2394 14.0502 28.226 14.0777 28.2146 14.1064C28.1699 14.2317 28.1485 14.3604 28.2224 14.4812C28.3129 14.6342 28.452 14.7598 28.6097 14.8534C28.6588 14.8817 28.7104 14.9015 28.7617 14.926L28.8908 14.9905C28.9611 15.0084 29.0346 15.0206 29.1087 15.0407C29.223 15.074 29.3507 15.0797 29.4654 15.0426C29.5681 15.0087 29.6171 14.9413 29.6613 14.856L29.6894 14.7942C29.7244 14.7161 29.7624 14.6373 29.8022 14.5595C29.8808 14.4059 29.9635 14.2496 30.0459 14.0982C30.2287 13.7554 30.4307 13.4186 30.6551 13.0998C30.7915 12.9115 30.9187 12.7129 31.0514 12.5225C31.2336 12.2549 31.4336 12.0001 31.6412 11.7497C31.6863 11.6976 31.7247 11.6442 31.7688 11.5941C32.0419 11.2782 32.3528 11.032 32.683 10.7743C32.8348 10.6554 32.9561 10.5063 33.099 10.3898C33.2508 10.2709 33.4378 10.2655 33.5447 10.0804C33.5938 9.99536 33.6722 9.87693 33.7025 9.76342Z" fill="#855C52"/>
<path d="M25.2468 10.34C25.1926 9.87544 24.5478 9.4604 23.9816 9.35013C23.2821 9.21327 22.5105 9.34966 21.8622 9.63029C21.3042 9.87237 20.3305 10.4941 20.5056 11.2425C20.5923 11.6074 20.9159 11.6709 21.2471 11.6908C21.848 11.7279 22.4229 11.3822 23.0047 11.2823C23.6021 11.1814 25.3794 11.4065 25.2468 10.34Z" fill="white"/>
<path d="M28.3773 14.0165C27.9897 13.6667 27.6494 13.2612 27.3595 12.8293C27.2079 12.6032 26.8771 11.7624 26.5191 12.2383C26.0831 12.8103 26.6277 13.835 26.9365 14.2778C27.4674 15.0427 28.2128 15.6368 29.0886 15.9309C29.9328 16.2143 30.792 16.2141 31.6531 15.8397C31.7646 15.7907 31.864 15.7146 31.9487 15.6376C32.2539 15.3578 31.8819 15.138 31.626 15.1187C31.4187 15.1024 31.2069 15.1463 31.0016 15.1311C30.6055 15.1014 30.2107 15.0346 29.8429 14.908C29.2933 14.7166 28.8067 14.4029 28.3773 14.0165Z" fill="#B93221"/>
<path d="M32.0515 35.591C31.3401 37.1339 29.5162 37.8068 27.9733 37.0953L16.9907 32.04C14.9638 31.104 13.2903 29.5514 12.2093 27.5927L0.307518 6.02744C-0.34998 4.8361 0.0813155 3.34241 1.27266 2.68491L5.58033 0.307517C6.77167 -0.34998 8.26536 0.0813156 8.92286 1.27266L10.2899 3.74957L14.3808 5.43438C16.449 6.28619 18.1562 7.82021 19.2372 9.77886L25.1175 20.4336C25.775 21.625 25.3437 23.1186 24.1524 23.7761C22.961 24.4336 21.4673 24.0023 20.8098 22.811L17.8381 17.4264C17.5112 16.8341 16.7591 16.617 16.1668 16.9438C15.5745 17.2707 15.3574 18.0228 15.6842 18.6151L20.1642 26.7324L30.5471 31.5127C32.0901 32.2242 32.763 34.048 32.0515 35.591Z" fill="#DDDACA"/>
<path d="M17.1604 44.0952C18.1647 43.1698 19.7307 43.2303 20.786 44.0952L28.6501 50.4865C29.6118 51.2735 30.8119 51.6973 32.0544 51.6973H42.1228C42.8718 51.6973 43.4846 51.0746 43.4846 50.3135C43.4846 49.5525 42.8718 48.9297 42.1228 48.9297H35.4588C34.1056 48.9297 32.846 47.987 32.6247 46.6292C32.3438 44.8995 33.6545 43.3946 35.3141 43.3946H48.9315C51.2295 43.3946 53.4508 44.1989 55.2381 45.6692L59.1957 48.9297H63.9107C64.6596 48.9297 65.2724 49.5525 65.2724 50.3135V58.6162C65.2724 59.3773 64.6596 60 63.9107 60H33.5439C32.3098 60 31.1097 59.5762 30.1395 58.7892L17.271 48.3243C15.9774 47.2779 15.8753 45.2714 17.1604 44.0952Z" fill="#DDDACA"/>
</g>
</svg>
