<svg width="62" height="60" viewBox="0 0 62 60" fill="none" xmlns="http://www.w3.org/2000/svg">
<g id="Vector">
<path d="M28.7925 41.1125L28.2658 54.0559L28.1956 54.8297L13.4482 53.8097C12.6055 53.7393 11.8213 53.37 11.0956 52.7018C10.37 52.0335 9.81988 51.2656 9.44534 50.398C9.18785 49.7649 9.01814 49.12 8.93621 48.4635C8.85428 47.8069 8.90109 47.0449 9.07666 46.1773C9.25222 45.3097 9.39267 44.6649 9.49801 44.2428C9.60335 43.8208 9.85499 43.0704 10.2529 41.9918C10.6509 40.9132 10.8733 40.2918 10.9201 40.1277C12.7459 40.409 18.7034 40.7373 28.7925 41.1125ZM15.2038 20.5015L21.5241 33.8318L16.3626 30.596C14.8878 32.2842 13.5828 33.9784 12.4475 35.6784C11.3122 37.3784 10.4636 38.8439 9.90181 40.0749C9.34 41.3059 8.87768 42.4139 8.51485 43.3987C8.15202 44.3835 7.93549 45.1221 7.86527 45.6145L7.72481 46.3532L1.05338 33.7967C0.655439 33.187 0.444762 32.5304 0.421354 31.827C0.397945 31.1236 0.468171 30.5725 0.63203 30.1739L0.912933 29.5408C1.73223 28.0636 3.06652 25.8594 4.91579 22.9284L0 19.9036L15.2038 20.5015ZM58.4277 38.6856L51.8265 51.3124C51.5456 51.9924 51.1184 52.5376 50.5449 52.948C49.9714 53.3583 49.4622 53.5986 49.0175 53.669L48.3854 53.8097C46.7234 53.9738 44.1602 54.1145 40.6957 54.2317L40.9766 60L32.9007 47.0918L40.3095 34.3594L40.5553 40.4442C44.5347 40.8194 47.847 40.878 50.4922 40.6201C53.1374 40.3621 55.1271 39.9753 56.4614 39.4594L58.4277 38.6856ZM30.8641 6.18641C29.7639 7.66365 26.6623 12.7636 21.5593 21.4864L10.4285 14.9091L9.76136 14.4871L17.6617 1.96574C18.1299 1.23885 18.8322 0.711262 19.7685 0.382987C20.7048 0.0547124 21.6412 -0.0625285 22.5775 0.0312642C23.1393 0.0781606 23.707 0.21885 24.2805 0.453332C24.854 0.687813 25.3456 0.934019 25.7552 1.19195C26.1649 1.44988 26.6506 1.83677 27.2124 2.35263C27.7742 2.86849 28.1956 3.27298 28.4765 3.56608C28.7574 3.85918 29.1787 4.32228 29.7405 4.95538C30.3023 5.58848 30.6769 5.99883 30.8641 6.18641ZM53.863 16.9843L61.3069 29.7518C61.7283 30.6194 61.8746 31.5105 61.7458 32.4249C61.6171 33.3394 61.2952 34.207 60.7802 35.0277C60.4759 35.4966 60.0897 35.9304 59.6215 36.3291C59.1534 36.7277 58.7086 37.056 58.2872 37.3139C57.8659 37.5718 57.2982 37.8297 56.5843 38.0877C55.8703 38.3456 55.3202 38.5332 54.934 38.6504C54.5477 38.7677 53.945 38.9318 53.1257 39.1428C52.3064 39.3539 51.768 39.4946 51.5105 39.5649C50.7146 37.8766 47.6129 32.7649 42.2056 24.2298L53.1959 17.3712L53.863 16.9843ZM48.8419 9.03537L53.8279 6.11607L46.1031 19.2353L31.3908 18.5319L36.6929 15.5071C35.897 13.4202 35.0192 11.474 34.0594 9.66847C33.0997 7.86296 32.216 6.41503 31.4084 5.32469C30.6008 4.23435 29.8459 3.29642 29.1436 2.51091C28.4414 1.7254 27.8913 1.18023 27.4933 0.875399L26.8964 0.418159L41.1171 0.453332C41.8427 0.382987 42.5216 0.50609 43.1536 0.822641C43.7857 1.13919 44.2421 1.47333 44.523 1.82505L44.9093 2.35263C45.8222 3.78297 47.1331 6.01055 48.8419 9.03537Z" fill="#DDDACA"/>
<path d="M30.8838 18.1368C27.8539 17.7486 24.8659 17.0301 22.0425 18.7672C19.406 20.3914 17.3861 23.1636 16.616 26.1312C15.528 30.3238 16.1752 35.0973 19.0796 38.4559C20.6754 40.2975 23.3286 42.2603 25.7001 42.9899C31.7878 44.8673 39.3122 43.9781 43.1317 38.3815C44.2225 36.7849 45.3162 34.6183 45.7152 32.7243C46.8339 27.4223 45.5812 21.209 40.0181 18.9269C37.5406 17.9111 34.893 18.4699 32.3039 18.2854C31.8268 18.2497 31.3553 18.1974 30.8838 18.1368Z" fill="#DB4437"/>
<path d="M40.1381 8.95866C42.158 8.89259 45.545 9.78453 46.9148 11.2078C47.0822 11.3867 47.4031 11.6372 47.4505 11.8575C47.5258 12.2181 47.2357 12.5264 47.0236 12.7907C44.0105 16.5869 37.8391 18.5552 33.9332 15.9758C33.3864 15.6151 33.6793 14.9462 33.7909 14.3929C34.2401 12.185 35.9671 10.1589 38.0958 9.35783C38.7626 9.10732 39.4517 8.98068 40.1381 8.95866Z" fill="#BDCF46"/>
<path d="M33.8579 14.8333C33.8384 14.7617 33.8021 14.6984 33.7491 14.6544C33.6375 14.569 33.4059 14.4837 33.2748 14.4369C33.0767 14.3626 32.8647 14.3323 32.6582 14.3323C32.5801 14.3323 32.5048 14.3351 32.4322 14.3433C32.1532 14.3763 31.9133 14.4782 31.7543 14.7012C31.5422 14.9902 31.5785 15.3178 31.5227 15.6537C31.4446 16.1327 31.2158 16.5676 31.0903 17.0356C30.9926 17.3963 30.9145 17.7624 30.8448 18.1313C30.7917 18.4011 30.7471 18.6708 30.7136 18.9434C30.5937 19.9537 30.4263 20.964 30.4709 21.9853C30.4737 22.1257 30.4793 22.2661 30.4876 22.4065C30.4904 22.4781 30.4988 22.5469 30.51 22.6185C30.5267 22.7121 30.5323 22.8195 30.5434 22.9268C30.549 22.9654 30.5518 23.0039 30.5574 23.0424C30.5881 23.2076 30.6467 23.3618 30.8057 23.4471C31.0038 23.5572 31.2381 23.6068 31.4725 23.6095C31.545 23.6095 31.6148 23.5985 31.6873 23.593L31.8715 23.582C31.9607 23.5572 32.05 23.5242 32.1449 23.4994C32.2927 23.4636 32.4378 23.3893 32.541 23.2764C32.6331 23.1746 32.6443 23.07 32.6387 22.9488L32.6303 22.8635C32.6192 22.7561 32.6108 22.646 32.6052 22.5359C32.5941 22.3184 32.5857 22.0954 32.5801 21.878C32.5634 21.388 32.5717 20.8924 32.6164 20.4024C32.6471 20.1106 32.661 19.8133 32.6861 19.5215C32.7168 19.1141 32.7754 18.7094 32.8451 18.3047C32.8619 18.2194 32.8703 18.1368 32.887 18.0542C32.9874 17.5367 33.1744 17.0714 33.3752 16.5814C33.4673 16.3557 33.5064 16.1162 33.5901 15.8987C33.6821 15.673 33.8858 15.5491 33.8858 15.2793C33.8858 15.1554 33.897 14.9765 33.8579 14.8333Z" fill="#855C52"/>
<path d="M24.8631 20.7988C24.506 20.3253 23.5267 20.2785 22.8292 20.5153C21.9672 20.8071 21.1999 21.443 20.6615 22.1588C20.1983 22.7754 19.5176 24.0693 20.19 24.7768C20.5192 25.1209 20.9181 24.986 21.2976 24.7988C21.9867 24.4602 22.4024 23.7196 22.9827 23.2434C23.5797 22.7561 25.6917 21.8807 24.8631 20.7988Z" fill="white"/>
<path d="M30.6802 22.8415C30.0273 22.7038 29.3912 22.4753 28.7941 22.1863C28.4817 22.0349 27.5777 21.3246 27.4857 22.0707C27.3685 22.9709 28.6268 23.7472 29.2517 24.0362C30.3286 24.5373 31.5339 24.7162 32.6917 24.4849C33.8077 24.262 34.759 23.7196 35.4733 22.7671C35.5653 22.6433 35.6267 22.4974 35.6714 22.3597C35.8304 21.8614 35.278 21.8559 34.9822 21.9963C34.7423 22.1092 34.5359 22.2909 34.2987 22.4038C33.8412 22.6212 33.3613 22.7974 32.873 22.891C32.1421 23.0287 31.4027 22.9929 30.6802 22.8415Z" fill="#B93221"/>
</g>
</svg>
