<svg width="54" height="60" viewBox="0 0 54 60" fill="none" xmlns="http://www.w3.org/2000/svg">
<path id="Vector" d="M24 21.5H24.5V21V0.5H29.5V21C29.5 27.0906 24.7307 32.037 18.719 32.411L18.25 32.4401V32.91V59.5H11.75V32.91V32.4401L11.281 32.411C5.26927 32.037 0.5 27.0906 0.5 21V0.5H5.5V21V21.5H6H12H12.5V21V0.5H17.5V21V21.5H18H24ZM47 36V35.5H46.5H39.5V12C39.5 9.55632 41.0712 6.68292 43.7214 4.39874C46.2479 2.22125 49.693 0.637025 53.5 0.508445V59.5H47V36Z" fill="#DDDACA" stroke="#756926"/>
</svg>
