<svg width="68" height="60" viewBox="0 0 68 60" fill="none" xmlns="http://www.w3.org/2000/svg">
<path id="Vector" d="M63.8593 14.346L63.8597 14.3481L67 30.0495V33.75C67 35.5364 65.5364 37 63.75 37H63.25V37.5V56.25C63.25 58.0364 61.7864 59.5 60 59.5C58.2136 59.5 56.75 58.0364 56.75 56.25V37.5V37H56.25H41.25H40.75V37.5V56.25C40.75 58.0364 39.2864 59.5 37.5 59.5H7.5C5.71364 59.5 4.25 58.0364 4.25 56.25V37.5V37H3.75C1.96364 37 0.5 35.5364 0.5 33.75V30.0495L3.64029 14.3481L3.6407 14.346C3.93197 12.8573 5.2625 11.75 6.825 11.75H60.675C62.2375 11.75 63.568 12.8573 63.8593 14.346ZM33.75 53H34.25V52.5V37.5V37H33.75H11.25H10.75V37.5V52.5V53H11.25H33.75ZM60 7H7.5C5.71364 7 4.25 5.53636 4.25 3.75C4.25 1.96364 5.71364 0.5 7.5 0.5H60C61.7864 0.5 63.25 1.96364 63.25 3.75C63.25 5.53636 61.7864 7 60 7Z" fill="#DDDACA" stroke="#756926"/>
</svg>
