<svg width="162" height="32" viewBox="0 0 162 32" fill="none" xmlns="http://www.w3.org/2000/svg">
<path d="M75.8504 31.168C75.5258 31.0352 75.0905 30.8065 74.5446 30.4819C74.0134 30.1573 73.4601 29.7958 72.8847 29.3974C72.324 28.999 71.8075 28.6228 71.3354 28.2686C70.878 27.8998 70.6197 27.7153 70.4279 27.4939C70.2361 27.6857 69.8304 27.826 69.3434 28.1358C68.8565 28.4309 68.2221 28.6965 67.44 28.9326C66.6728 29.1539 65.7358 29.2646 64.6292 29.2646C62.7848 29.2646 61.1618 28.8883 59.76 28.1358C58.3583 27.3833 57.1853 26.3505 56.241 25.0373C55.2966 23.7093 54.5884 22.1896 54.1162 20.478C53.6441 18.7664 53.408 16.9663 53.408 15.0776C53.408 13.0709 53.6515 11.1897 54.1384 9.43382C54.6253 7.66321 55.3483 6.10656 56.3074 4.76385C57.2664 3.42114 58.4542 2.36615 59.8707 1.59889C61.2872 0.831631 62.925 0.448 64.7841 0.448C67.5286 0.448 69.7713 1.07509 71.5124 2.32927C73.2535 3.58345 74.5372 5.31716 75.3635 7.53042C76.2045 9.72892 76.6251 12.252 76.6251 15.0998C76.6251 16.5015 76.507 17.8442 76.2709 19.1279C76.0496 20.4116 75.6955 21.592 75.2086 22.6691C74.7217 23.7315 74.0872 24.6463 73.3052 25.4135C73.8954 26.0185 74.6184 26.5644 75.4742 27.0513C76.3299 27.5383 77.1858 27.9219 78.0415 28.2022C77.7907 28.6744 77.4587 29.1908 77.0456 29.7515C76.6472 30.3122 76.2488 30.7844 75.8504 31.168Z" fill="#121D1F"/>
<path fill-rule="evenodd" clip-rule="evenodd" d="M56.9435 18.6912C57.1602 18.578 57.4276 18.662 57.5408 18.8787C58.6049 20.9168 60.6068 23.2883 63.1371 23.9707C64.3851 24.3073 65.7834 24.2403 67.3062 23.4928C68.8386 22.7405 70.5155 21.2892 72.2814 18.8257C72.4238 18.627 72.7004 18.5813 72.8991 18.7238C73.0978 18.8662 73.1434 19.1427 73.001 19.3414C71.1814 21.8798 69.401 23.4506 67.6963 24.2875C65.982 25.129 64.3633 25.2184 62.9066 24.8255C60.0273 24.049 57.8682 21.4186 56.756 19.2884C56.6429 19.0717 56.7268 18.8043 56.9435 18.6912Z" fill="#F7F6F0"/>
<path fill-rule="evenodd" clip-rule="evenodd" d="M57.5824 13.1135C57.8544 13.2527 58.1878 13.1451 58.327 12.8731C58.6407 12.2603 59.1975 11.624 59.8272 11.4509C60.1192 11.3705 60.4529 11.3809 60.8405 11.575C61.241 11.7755 61.7202 12.1838 62.251 12.9391C62.4267 13.1891 62.7718 13.2493 63.0218 13.0736C63.2718 12.8979 63.3321 12.5528 63.1564 12.3028C62.5603 11.4547 61.9529 10.8943 61.336 10.5854C60.7062 10.2701 60.0917 10.2304 59.5337 10.3839C58.4632 10.6783 57.7123 11.6454 57.342 12.3688C57.2027 12.6408 57.3104 12.9742 57.5824 13.1135Z" fill="#F7F6F0"/>
<path fill-rule="evenodd" clip-rule="evenodd" d="M66.2141 13.1135C66.4861 13.2527 66.8195 13.1451 66.9587 12.8731C67.2724 12.2603 67.8292 11.624 68.4589 11.4509C68.7509 11.3705 69.0846 11.3809 69.4722 11.575C69.8727 11.7755 70.3519 12.1838 70.8827 12.9391C71.0584 13.1891 71.4035 13.2493 71.6535 13.0736C71.9035 12.8979 71.9638 12.5528 71.7881 12.3028C71.192 11.4547 70.5846 10.8943 69.9677 10.5854C69.338 10.2701 68.7234 10.2304 68.1654 10.3839C67.0949 10.6783 66.344 11.6454 65.9737 12.3688C65.8344 12.6408 65.9421 12.9742 66.2141 13.1135Z" fill="#F7F6F0"/>
<path d="M0 23.104V8.928C0 8.352 0.405333 8.064 1.216 8.064C1.536 8.064 1.80267 8.13867 2.016 8.288C2.25067 8.43733 2.368 8.65067 2.368 8.928V12.928C3.17867 11.1787 4.07467 9.856 5.056 8.96C6.05867 8.064 7.38133 7.616 9.024 7.616C10.176 7.616 11.3387 7.76533 12.512 8.064C13.1307 8.36267 13.44 8.768 13.44 9.28C13.44 9.64267 13.3653 9.89867 13.216 10.048C13.0667 10.1973 12.8213 10.2933 12.48 10.336C11.392 10.08 10.5067 9.952 9.824 9.952C8.24533 9.952 6.80533 10.7307 5.504 12.288C4.20267 13.8453 3.15733 15.872 2.368 18.368V23.104C2.368 23.3813 2.25067 23.6053 2.016 23.776C1.78133 23.9253 1.504 24 1.184 24C0.394667 24 0 23.7013 0 23.104Z" fill="#007288"/>
<path d="M15.378 15.552C15.378 14.1867 15.6767 12.9707 16.274 11.904C16.8713 10.8373 17.6607 9.99467 18.642 9.376C19.6233 8.75733 20.6793 8.29867 21.81 8C22.9407 7.68 24.0927 7.52 25.266 7.52C27.3567 7.52 28.978 7.97867 30.13 8.896C31.282 9.792 31.858 10.9013 31.858 12.224C31.858 13.6533 31.186 14.8693 29.842 15.872C28.498 16.8747 26.5887 17.376 24.114 17.376C21.8953 17.376 19.7833 17.056 17.778 16.416C18.0127 17.9947 18.7487 19.3173 19.986 20.384C21.2233 21.4507 22.7487 21.984 24.562 21.984C25.522 21.984 26.514 21.8347 27.538 21.536C28.5833 21.2373 29.4047 20.8107 30.002 20.256C30.0873 20.0853 30.258 20 30.514 20C30.8127 20 31.1327 20.1387 31.474 20.416C31.8153 20.672 31.986 20.9387 31.986 21.216C31.4527 22.304 30.4073 23.104 28.85 23.616C27.314 24.1067 25.8207 24.352 24.37 24.352C21.746 24.352 19.5913 23.488 17.906 21.76C16.2207 20.032 15.378 17.9627 15.378 15.552ZM17.906 13.952C19.506 14.656 21.49 15.008 23.858 15.008C25.714 15.008 27.122 14.72 28.082 14.144C29.042 13.5467 29.522 12.8853 29.522 12.16C29.522 11.52 29.1167 10.9867 28.306 10.56C27.5167 10.112 26.3327 9.888 24.754 9.888C23.0473 9.888 21.618 10.272 20.466 11.04C19.3353 11.7867 18.482 12.7573 17.906 13.952Z" fill="#007288"/>
<path d="M35.2725 20.96C35.2725 20.6827 35.3898 20.384 35.6245 20.064C35.8805 19.744 36.1685 19.5413 36.4885 19.456C36.6378 19.456 36.7125 19.4773 36.7125 19.52C37.3952 20.2667 38.3765 20.8533 39.6565 21.28C40.9365 21.6853 41.9392 21.92 42.6645 21.984C43.4112 22.048 44.1045 22.08 44.7445 22.08C47.5178 22.08 48.9045 21.2373 48.9045 19.552C48.9045 18.976 48.6912 18.5173 48.2645 18.176C47.8592 17.8133 47.2938 17.568 46.5685 17.44C45.8645 17.312 45.1498 17.2267 44.4245 17.184C43.6992 17.1413 42.9098 17.1093 42.0565 17.088C41.2032 17.0453 40.5525 16.9813 40.1045 16.896C38.8885 16.6613 37.8112 16.1707 36.8725 15.424C35.9338 14.656 35.4645 13.76 35.4645 12.736C35.4645 11.1147 36.2752 9.87733 37.8965 9.024C39.5392 8.14933 41.3418 7.712 43.3045 7.712C44.6272 7.712 46.0458 7.94667 47.5605 8.416C49.0752 8.864 50.2058 9.568 50.9525 10.528C50.9738 10.5707 50.9845 10.624 50.9845 10.688C50.9845 10.9653 50.8565 11.296 50.6005 11.68C50.3445 12.0427 50.0992 12.224 49.8645 12.224C49.6512 12.224 49.4378 12.0533 49.2245 11.712C48.2005 10.624 46.1632 10.08 43.1125 10.08C41.8538 10.08 40.6592 10.2933 39.5285 10.72C38.3978 11.1467 37.8325 11.776 37.8325 12.608C37.8325 13.312 38.3232 13.8453 39.3045 14.208C40.2858 14.5493 41.3312 14.72 42.4405 14.72C43.2298 14.72 43.8912 14.7307 44.4245 14.752C44.9578 14.7733 45.6085 14.8373 46.3765 14.944C47.1445 15.0293 47.7845 15.1893 48.2965 15.424C48.8085 15.6373 49.3098 15.9253 49.8005 16.288C50.2912 16.6293 50.6538 17.0987 50.8885 17.696C51.1445 18.272 51.2725 18.9547 51.2725 19.744C51.2725 20.832 50.9312 21.7493 50.2485 22.496C49.5872 23.2213 48.8192 23.7227 47.9445 24C47.0912 24.2987 46.1845 24.448 45.2245 24.448C40.7232 24.448 37.4805 23.488 35.4965 21.568C35.3472 21.4187 35.2725 21.216 35.2725 20.96Z" fill="#007288"/>
<path d="M80.832 31.136V8.896C80.832 8.61867 80.9493 8.40533 81.184 8.256C81.4187 8.08533 81.696 8 82.016 8C82.8053 8 83.2 8.29867 83.2 8.896V12.384C85.2267 9.29067 88.224 7.744 92.192 7.744C94.0053 7.744 95.5413 8.352 96.8 9.568C98.08 10.7627 98.72 12.1707 98.72 13.792C98.72 15.6907 98.1973 17.44 97.152 19.04C96.1067 20.6187 94.7413 21.8453 93.056 22.72C91.392 23.5947 89.6427 24.032 87.808 24.032C86.0373 24.032 84.5013 23.4453 83.2 22.272V31.136C83.2 31.712 82.7947 32 81.984 32C81.664 32 81.3867 31.9253 81.152 31.776C80.9387 31.6267 80.832 31.4133 80.832 31.136ZM83.168 17.696C83.168 18.9973 83.68 19.9787 84.704 20.64C85.7493 21.3013 86.784 21.632 87.808 21.632C89.0453 21.632 90.304 21.3333 91.584 20.736C92.864 20.1387 93.952 19.2533 94.848 18.08C95.7653 16.8853 96.224 15.584 96.224 14.176C96.224 12.7253 95.7653 11.68 94.848 11.04C93.952 10.4 92.864 10.08 91.584 10.08C90.3893 10.08 89.12 10.4853 87.776 11.296C86.4533 12.0853 85.3547 13.088 84.48 14.304C83.6053 15.4987 83.168 16.6293 83.168 17.696Z" fill="#007288"/>
<path d="M102.663 23.104V0.864C102.663 0.288 103.069 0 103.879 0C104.199 0 104.466 0.074667 104.679 0.224001C104.914 0.373334 105.031 0.586667 105.031 0.864V23.104C105.031 23.3813 104.914 23.6053 104.679 23.776C104.445 23.9253 104.167 24 103.847 24C103.058 24 102.663 23.7013 102.663 23.104Z" fill="#007288"/>
<path d="M108.978 18.176C108.978 15.3173 110.098 12.8533 112.338 10.784C114.578 8.71467 117.117 7.68 119.954 7.68C121.895 7.68 123.549 8.416 124.914 9.888C126.279 11.36 126.962 13.0347 126.962 14.912L126.93 23.296C126.93 23.5733 126.791 23.7973 126.514 23.968C126.258 24.1173 125.97 24.192 125.65 24.192C124.946 24.192 124.594 23.8933 124.594 23.296V17.888C122.866 20.128 121.213 21.7493 119.634 22.752C118.077 23.7547 116.466 24.256 114.802 24.256C113.266 24.256 111.911 23.6373 110.738 22.4C109.565 21.1413 108.978 19.7333 108.978 18.176ZM111.282 18.24C111.282 19.456 111.709 20.384 112.562 21.024C113.415 21.6427 114.322 21.952 115.282 21.952C116.391 21.952 117.661 21.408 119.09 20.32C120.519 19.2107 121.703 17.984 122.642 16.64C123.602 15.2747 124.082 14.208 124.082 13.44C124.082 12.8 123.89 12.2347 123.506 11.744C123.143 11.232 122.685 10.8587 122.13 10.624C121.597 10.3893 121.106 10.2187 120.658 10.112C120.21 9.984 119.837 9.92 119.538 9.92C117.447 9.92 115.549 10.7627 113.842 12.448C112.135 14.112 111.282 16.0427 111.282 18.24Z" fill="#007288"/>
<path d="M130.145 9.184C130.145 8.864 130.219 8.58667 130.369 8.352C130.539 8.11733 130.763 8 131.041 8H132.129V4.064C132.129 3.78667 132.235 3.57333 132.449 3.424C132.683 3.27467 132.961 3.2 133.281 3.2C134.091 3.2 134.497 3.488 134.497 4.064V8H139.617C139.894 8 140.107 8.11733 140.257 8.352C140.406 8.56533 140.481 8.832 140.481 9.152C140.481 9.96267 140.193 10.368 139.617 10.368H134.497V18.016C134.497 20.4053 135.403 21.6 137.217 21.6C137.985 21.6 138.646 21.3867 139.201 20.96C139.777 20.5333 140.065 19.7867 140.065 18.72C140.065 18.4213 140.182 18.176 140.417 17.984C140.673 17.792 140.971 17.696 141.313 17.696C141.633 17.696 141.899 17.792 142.113 17.984C142.326 18.1547 142.433 18.4107 142.433 18.752C142.411 20.4373 141.899 21.728 140.897 22.624C139.915 23.52 138.689 23.968 137.217 23.968C133.825 23.968 132.129 21.696 132.129 17.152V10.368H131.041C130.443 10.368 130.145 9.97333 130.145 9.184Z" fill="#007288"/>
<path d="M144.984 15.552C144.984 14.1867 145.283 12.9707 145.88 11.904C146.478 10.8373 147.267 9.99467 148.248 9.376C149.23 8.75733 150.286 8.29867 151.416 8C152.547 7.68 153.699 7.52 154.872 7.52C156.963 7.52 158.584 7.97867 159.736 8.896C160.888 9.792 161.464 10.9013 161.464 12.224C161.464 13.6533 160.792 14.8693 159.448 15.872C158.104 16.8747 156.195 17.376 153.72 17.376C151.502 17.376 149.39 17.056 147.384 16.416C147.619 17.9947 148.355 19.3173 149.592 20.384C150.83 21.4507 152.355 21.984 154.168 21.984C155.128 21.984 156.12 21.8347 157.144 21.536C158.19 21.2373 159.011 20.8107 159.608 20.256C159.694 20.0853 159.864 20 160.12 20C160.419 20 160.739 20.1387 161.08 20.416C161.422 20.672 161.592 20.9387 161.592 21.216C161.059 22.304 160.014 23.104 158.456 23.616C156.92 24.1067 155.427 24.352 153.976 24.352C151.352 24.352 149.198 23.488 147.512 21.76C145.827 20.032 144.984 17.9627 144.984 15.552ZM147.512 13.952C149.112 14.656 151.096 15.008 153.464 15.008C155.32 15.008 156.728 14.72 157.688 14.144C158.648 13.5467 159.128 12.8853 159.128 12.16C159.128 11.52 158.723 10.9867 157.912 10.56C157.123 10.112 155.939 9.888 154.36 9.888C152.654 9.888 151.224 10.272 150.072 11.04C148.942 11.7867 148.088 12.7573 147.512 13.952Z" fill="#007288"/>
</svg>
