<svg width="196" height="286" viewBox="0 0 196 286" fill="none" xmlns="http://www.w3.org/2000/svg">
<path d="M-6.4765 259.929C-0.460902 251.356 17.5188 244.694 24.7962 245.562C25.106 245.227 25.4465 244.876 25.8191 244.507C30.0639 240.301 44.7774 224.657 46.5391 222.634C49.1841 219.598 51.9887 216.57 54.8107 213.568C51.0653 215.857 47.1141 217.746 43.1357 219.588C32.7243 224.408 21.291 222.492 12.3893 213.892C7.46435 209.135 3.1264 198.279 11.5263 193.677C15.1522 191.69 20.3996 191.728 24.7737 191.759C25.6147 191.765 26.4233 191.771 27.182 191.762C39.9095 191.613 55.6196 194.617 67.3259 200.09C76.8974 189.271 83.5244 176.61 91.3394 164.577C95.3305 158.092 99.2726 151.687 102.884 145.11C90.723 155.364 63.7011 165.91 53.7488 160.2C48.8957 157.415 44.4266 153.425 45.9995 147.09C47.2162 142.189 52.3319 137.871 56.4627 135.521C63.6883 131.41 72.2953 129.795 80.3653 129.274C90.2789 128.633 99.0661 131.144 107.502 136.165C108.42 134.252 109.303 132.318 110.143 130.354C114.259 120.732 117.39 110.778 120.571 100.665C121.405 98.0157 122.242 95.3553 123.101 92.6874C123.516 91.3966 123.936 90.1074 124.355 88.8175C126.204 83.3021 127.964 77.7309 129.425 72.0993C123.478 81.32 110.514 92.3607 98.5324 93.1639C87.7976 93.8836 80.9997 83.1728 87.8569 74.8075C97.6488 62.8622 117.932 63.0643 131.373 63.9042C134.068 52.6465 137.287 41.7291 140.979 30.7083C142.22 27.0052 143.454 22.8956 144.727 18.6575C145.167 17.193 145.607 15.7288 146.052 14.2659C144.966 15.3664 143.757 16.453 142.653 17.4458C137.515 22.0629 133.172 27.9709 126.737 30.814C121.409 33.1681 114.828 34.2533 109.141 34.1987C104.439 34.1534 99.0851 31.8591 96.876 27.5445C94.0054 21.9379 97.2924 15.6656 101.026 11.2254C111.026 -0.668288 138.784 -1.39716 149.673 2.98328C151.08 -1.07158 152.578 -4.92211 154.208 -8.30636C162.04 -24.5653 171.251 -43.664 178.969 -57.2965C180.192 -58.7885 193.141 -51.2756 191.556 -48.0862C190.488 -46.4006 189.485 -44.8172 188.54 -43.3255C180.452 -30.5563 176.619 -24.5046 172.27 -18.5589C165.267 -8.98332 157.759 6.58523 152.546 19.0262C159.394 24.5523 166.663 29.3206 174.114 34.0336C182.9 39.591 201.982 52.2116 193.629 65.7137C190.811 70.2699 186.034 73.7473 180.901 74.9156C172.975 76.7195 167.489 75.7286 162.03 69.9444C157.029 64.6458 153.442 53.027 151.543 45.9288C150.846 43.3265 150.383 40.6237 149.92 37.9193C149.454 35.201 148.988 32.481 148.284 29.8599C147.898 30.9251 147.553 31.9128 147.252 32.8098C143.155 45.0402 139.664 57.093 136.838 69.6085C135.426 75.8634 133.521 81.9867 131.58 87.9893C136.792 91.9012 146.073 99.0994 150.408 103.896C150.678 104.196 150.965 104.511 151.265 104.84C157.858 112.088 170.918 126.442 159.702 135.444C156.775 137.793 152.965 138.862 149.339 138.722C144.434 138.532 141.563 135.429 138.506 132.124C138.075 131.658 137.64 131.189 137.196 130.723C133.498 126.845 130.105 122.418 128.321 117.243C127.046 113.544 126.442 109.638 125.918 105.717C123.041 114.827 120.033 124.053 116.225 132.956C114.241 137.594 112.002 142.122 109.611 146.568C111.928 147.57 116.276 153.555 120.085 158.797C121.467 160.698 122.777 162.502 123.894 163.935C130.532 172.451 139.053 187.024 130.48 197.64C127.992 200.721 121.539 207.341 117.138 204.851C113.036 202.53 109.715 197.799 107.645 193.669C101.701 181.806 102.674 164.874 104.426 155.75C101.883 160.076 99.2604 164.341 96.6582 168.572C93.432 173.817 90.2379 179.01 87.2683 184.204C82.4889 192.565 76.7436 199.67 70.4976 206.557C68.4142 208.854 66.0787 211.186 63.6605 213.5C66.5696 214.151 70.7941 217.183 72.7381 218.579C72.944 218.726 73.1243 218.856 73.2748 218.962C76.5875 221.302 79.6466 224.707 81.8545 228.12C88.5295 238.439 85.8772 251.586 80.2313 262.576C78.3105 266.315 72.9135 271.142 68.4764 271.088C65.9849 271.058 64.1414 269.479 62.3744 267.966C62.2792 267.885 62.1842 267.804 62.0894 267.723C52.6847 259.703 54.4266 241.188 55.7359 227.272C55.9698 224.785 56.1899 222.446 56.3302 220.339C52.1401 224.209 48.2107 227.874 45.4276 231.069C42.18 234.797 33.411 243.19 27.7722 247.83C27.6024 252.206 18.9497 265.538 13.2331 272.512C12.823 273.012 12.4182 273.511 12.0163 274.007C7.1417 280.021 2.69898 285.502 -5.64997 285.709C-13.6451 285.907 -13.4084 281.263 -12.4783 274.46C-11.8042 269.528 -9.33205 263.999 -6.4765 259.929Z" fill="#DDDACA"/>
</svg>
