<svg width="97" height="120" viewBox="0 0 97 120" fill="none" xmlns="http://www.w3.org/2000/svg">
<path d="M88.0533 120C86.7853 119.481 85.085 118.588 82.9524 117.32C80.8775 116.052 78.7161 114.64 76.4683 113.084C74.2781 111.527 72.2608 110.058 70.4164 108.674C68.6297 107.233 67.621 106.513 66.8717 105.648C66.1224 106.397 64.5375 106.945 62.6354 108.156C60.7334 109.308 58.255 110.346 55.2003 111.268C52.2032 112.133 48.5432 112.565 44.2205 112.565C37.0158 112.565 30.6758 111.095 25.2003 108.156C19.7248 105.216 15.1426 101.182 11.4539 96.0519C7.76513 90.8645 4.99856 84.9279 3.15417 78.2421C1.30979 71.5562 0.387604 64.5245 0.387604 57.147C0.387604 49.3083 1.33861 41.9596 3.24063 35.1009C5.14265 28.1844 7.96686 22.1037 11.7133 16.8588C15.4597 11.6138 20.0994 7.49279 25.6326 4.49567C31.1657 1.49856 37.5634 0 44.8256 0C55.5461 0 64.3069 2.44957 71.1081 7.3487C77.9092 12.2478 82.9236 19.0202 86.1513 27.6657C89.4366 36.2536 91.0792 46.1095 91.0792 57.2334C91.0792 62.7089 90.6182 67.9539 89.696 72.9683C88.8314 77.9827 87.4481 82.5937 85.5461 86.8011C83.6441 90.951 81.1657 94.5245 78.1109 97.5216C80.4164 99.8847 83.2406 102.017 86.5836 103.919C89.9265 105.821 93.2695 107.32 96.6124 108.415C95.6326 110.259 94.3357 112.277 92.7219 114.467C91.1657 116.657 89.6095 118.501 88.0533 120Z" fill="#070808"/>
<path fill-rule="evenodd" clip-rule="evenodd" d="M14.1982 71.2623C15.0448 70.8203 16.0893 71.1483 16.5313 71.9948C20.6882 79.9563 28.5078 89.2201 38.3918 91.8857C43.267 93.2005 48.7289 92.9388 54.6774 90.0186C60.6634 87.0799 67.2138 81.411 74.1119 71.7877C74.6683 71.0116 75.7485 70.8334 76.5246 71.3897C77.3008 71.9461 77.479 73.0263 76.9226 73.8025C69.8149 83.7181 62.8603 89.8539 56.2013 93.1229C49.5048 96.4103 43.1817 96.7593 37.4914 95.2246C26.2443 92.1914 17.8103 81.9163 13.4658 73.5954C13.0238 72.7488 13.3517 71.7043 14.1982 71.2623Z" fill="#F7F6F0"/>
<path fill-rule="evenodd" clip-rule="evenodd" d="M16.6938 49.4744C17.7563 50.0184 19.0586 49.598 19.6026 48.5354C20.8279 46.1418 23.003 43.6564 25.4626 42.9799C26.6034 42.6661 27.9067 42.7065 29.421 43.4647C30.9853 44.2479 32.857 45.843 34.9305 48.7933C35.6169 49.7699 36.965 50.0052 37.9416 49.3188C38.9183 48.6325 39.1535 47.2843 38.4672 46.3077C36.1389 42.9948 33.7661 40.806 31.3563 39.5993C28.8964 38.3677 26.4959 38.2123 24.3161 38.8119C20.1345 39.9621 17.2013 43.7399 15.7547 46.5656C15.2108 47.6282 15.6312 48.9305 16.6938 49.4744Z" fill="#F7F6F0"/>
<path fill-rule="evenodd" clip-rule="evenodd" d="M50.4113 49.4744C51.4739 50.0184 52.7762 49.598 53.3202 48.5354C54.5455 46.1418 56.7206 43.6564 59.1802 42.9799C60.3209 42.6661 61.6243 42.7065 63.1385 43.4647C64.7029 44.2479 66.5746 45.843 68.6481 48.7933C69.3345 49.7699 70.6826 50.0052 71.6592 49.3188C72.6358 48.6325 72.8711 47.2843 72.1848 46.3077C69.8564 42.9948 67.4837 40.806 65.0739 39.5993C62.614 38.3677 60.2135 38.2123 58.0337 38.8119C53.852 39.9621 50.9189 43.7399 49.4723 46.5656C48.9284 47.6282 49.3488 48.9305 50.4113 49.4744Z" fill="#F7F6F0"/>
</svg>
